<?xml version="1.0" encoding="utf-8"?>
<!-- Generator: Adobe Illustrator 19.2.0, SVG Export Plug-In . SVG Version: 6.00 Build 0)  -->
<svg version="1.1" id="Capa_1" xmlns="http://www.w3.org/2000/svg" xmlns:xlink="http://www.w3.org/1999/xlink" x="0px" y="0px"
	 viewBox="0 0 110 53" style="enable-background:new 0 0 110 53;" xml:space="preserve">
<style type="text/css">
	.st0{fill:#65AF41;}
	.st1{fill:#254291;}
	.st2{fill:#979897;}
</style>
<path class="st0" d="M27.1,4.2l-5.4,25.6H16l-7-18H8.9l-3.7,18H0L5.4,4.2h5.8l7,18.2h0.1l3.7-18.2H27.1z M28.4,11.3l-3.9,18.5h5.1
	l3.9-18.5H28.4z M34.1,8.4l0.9-4.2h-5.1L29,8.4H34.1z M96,22.1c0-0.1,0-0.2,0-0.3h13.7c0.2-1,0.3-2,0.3-2.9c0-1.3-0.2-2.5-0.6-3.5
	c-0.4-1-1-1.9-1.8-2.5c-0.8-0.7-1.7-1.2-2.7-1.5c-1.1-0.3-2.2-0.5-3.5-0.5c-1.6,0-3,0.3-4.3,1c-1.3,0.6-2.3,1.5-3.2,2.5
	c-0.9,1.1-1.5,2.3-2,3.7c-0.5,1.4-0.7,2.8-0.7,4.3c0,1.3,0.2,2.5,0.6,3.5c0.4,1,1,1.8,1.7,2.5c0.7,0.7,1.6,1.2,2.6,1.5
	c1,0.3,2.1,0.5,3.4,0.5c1.3,0,2.5-0.1,3.5-0.4c1-0.3,1.9-0.7,2.7-1.2c0.8-0.5,1.4-1.2,2-2c0.5-0.8,1-1.7,1.4-2.8h-5.1
	c-0.2,0.3-0.4,0.6-0.6,0.9c-0.2,0.3-0.5,0.6-0.8,0.8c-0.3,0.2-0.6,0.4-1,0.6c-0.4,0.2-0.8,0.2-1.3,0.2c-1.4,0-2.4-0.3-3.1-1
	c-0.7-0.7-1-1.5-1-2.6v-0.5V22.1 M105,17.1c0.1,0.5,0.1,0.9,0.1,1.4h-8.5c0.2-0.5,0.4-1,0.7-1.5c0.3-0.5,0.6-0.9,1-1.3
	c0.4-0.4,0.9-0.6,1.4-0.9c0.6-0.2,1.2-0.3,1.9-0.3c0.7,0,1.3,0.1,1.8,0.3c0.5,0.2,0.8,0.5,1,0.9C104.7,16.2,104.9,16.7,105,17.1
	 M35.8,11.3L32,29.8h5.1l2.1-9.9c0.1-0.6,0.3-1.2,0.6-1.8c0.3-0.6,0.6-1.1,1-1.6c0.4-0.5,0.9-0.9,1.4-1.2c0.5-0.3,1.1-0.5,1.8-0.5
	c0.6,0,1.2,0.2,1.6,0.6c0.4,0.4,0.6,0.8,0.6,1.4c0,0.4,0,0.8-0.1,1.3l-2.4,11.7h5.1l2.1-9.9c0.1-0.6,0.3-1.2,0.6-1.8
	c0.3-0.6,0.6-1.1,1-1.6c0.4-0.5,0.9-0.9,1.4-1.2c0.5-0.3,1.1-0.5,1.8-0.5c0.6,0,1.2,0.2,1.6,0.6c0.4,0.4,0.6,0.8,0.6,1.4
	c0,0.4,0,0.8-0.1,1.3l-2.4,11.7h5.1l2.3-10.9c0.1-0.5,0.2-1.1,0.4-1.7c0.1-0.6,0.2-1.2,0.2-1.7c0-0.8-0.2-1.5-0.5-2.1
	c-0.3-0.6-0.7-1.1-1.3-1.5c-0.5-0.4-1.1-0.7-1.8-0.9c-0.7-0.2-1.4-0.3-2.1-0.3c-0.6,0-1.2,0.1-1.8,0.2c-0.6,0.2-1.2,0.4-1.7,0.7
	c-0.6,0.3-1.1,0.6-1.5,1c-0.5,0.4-0.9,0.8-1.2,1.3c-0.2-1.1-0.7-2-1.5-2.5c-0.8-0.5-1.8-0.8-2.9-0.8c-1.4,0-2.6,0.3-3.7,0.8
	c-1.1,0.5-2,1.3-2.8,2.4h-0.1l0.6-2.6H35.8z M67.1,1.1l-3.3,26l4.7-0.4l0.4-2.9l0.1,0c0.6,1.3,1.4,2.1,2.5,2.5
	c1.1,0.4,2.3,0.5,3.6,0.4c1.6-0.1,2.9-0.6,4.1-1.3c1.1-0.8,2.1-1.7,2.8-2.9c0.7-1.1,1.2-2.4,1.5-3.9c0.3-1.4,0.4-2.9,0.3-4.3
	c-0.1-1.1-0.3-2.1-0.6-3c-0.3-0.9-0.8-1.7-1.4-2.4c-0.6-0.7-1.3-1.2-2.2-1.5C78.6,7,77.5,6.9,76.3,7c-1.2,0.1-2.2,0.4-3,0.8
	c-0.8,0.5-1.5,1.1-2.3,2.1l-0.1,0l1.2-9.2L67.1,1.1z M72.1,12c0.7-0.6,1.5-0.9,2.5-1c1.3-0.1,2.3,0.2,2.9,1c0.6,0.7,1,1.7,1.1,2.9
	c0.1,0.8,0,1.6-0.1,2.6c-0.1,0.9-0.4,1.8-0.8,2.6c-0.4,0.8-0.9,1.5-1.5,2c-0.6,0.6-1.4,0.9-2.4,0.9c-1.2,0.1-2.1-0.2-2.8-0.9
	c-0.7-0.7-1.1-1.6-1.2-2.7c-0.1-0.8,0-1.7,0.1-2.6c0.1-0.9,0.4-1.8,0.8-2.7C71,13.3,71.5,12.6,72.1,12 M88.3,4.2l-5.4,25.6h5.1
	l5.5-25.6H88.3z"/>
<path class="st1" d="M106.1,38.6c-0.4-1.1-0.5-1.3-1.6-1.3l-2.5,0l-3.9,12.9h2l0.8-2.8h4.7l0.9,2.8h3.5L106.1,38.6z M101.5,45.5
	l1.8-5.9l1.8,5.9H101.5z M75.6,42.3l0.6-0.9c1.3-2,0.4-4.1-2.2-4.1h-5.6v12.9h5.4C78.6,50.2,80,44.6,75.6,42.3z M72.4,48.4h-0.9V39
	h1.7c0.8,0,1.5,0.7,1.5,1.5c0,0.3-0.1,0.5-0.3,0.9L73.2,43c1.1,0.3,1.9,1.1,1.9,2.7C75.1,47.6,73.9,48.4,72.4,48.4z M86.5,42.3
	l0.6-0.9c1.3-2,0.4-4.1-2.2-4.1h-5.6v12.9h5.4C89.5,50.2,91,44.6,86.5,42.3z M83.3,48.4h-0.9V39H84c0.8,0,1.5,0.7,1.5,1.5
	c0,0.3-0.1,0.5-0.3,0.9L84.1,43c1.1,0.3,1.9,1.1,1.9,2.7C86,47.6,84.8,48.4,83.3,48.4z M99.6,37.3l-3.9,12.9l-3.1,0l-4.2-12.9l2.3,0
	c0.9,0,1.1,0.2,1.6,1.7l2.4,8.1l2.9-9.8H99.6z"/>
<path class="st2" d="M0,42.9h3.2c0.5,0,0.9,0.1,1.3,0.2c0.3,0.1,0.6,0.3,0.8,0.6c0.2,0.2,0.3,0.5,0.4,0.7c0.1,0.3,0.1,0.5,0.1,0.7
	c0,0.2,0,0.5-0.1,0.7c-0.1,0.3-0.2,0.5-0.4,0.7c-0.2,0.2-0.4,0.4-0.8,0.6c-0.3,0.1-0.7,0.2-1.3,0.2H1.3v2.8H0V42.9z M1.3,46.3h1.9
	c0.1,0,0.3,0,0.4-0.1c0.1,0,0.3-0.1,0.4-0.2c0.1-0.1,0.2-0.2,0.3-0.4c0.1-0.2,0.1-0.3,0.1-0.6c0-0.2,0-0.4-0.1-0.6
	c-0.1-0.2-0.2-0.3-0.3-0.4C4,44.1,3.8,44,3.7,44c-0.1,0-0.3-0.1-0.5-0.1H1.3V46.3z M11.6,49c0,0.1,0,0.2,0.1,0.3
	c0,0.1,0.1,0.1,0.2,0.1c0,0,0.1,0,0.1,0s0.1,0,0.2,0v0.8c0,0-0.1,0-0.2,0c-0.1,0-0.1,0-0.2,0c-0.1,0-0.1,0-0.2,0c-0.1,0-0.1,0-0.2,0
	c-0.2,0-0.4,0-0.6-0.1c-0.2-0.1-0.3-0.3-0.3-0.5c-0.2,0.2-0.5,0.4-0.9,0.5c-0.3,0.1-0.7,0.2-1,0.2c-0.2,0-0.5,0-0.7-0.1
	c-0.2-0.1-0.4-0.2-0.6-0.3c-0.2-0.1-0.3-0.3-0.4-0.5c-0.1-0.2-0.1-0.4-0.1-0.7c0-0.3,0.1-0.6,0.2-0.8c0.1-0.2,0.3-0.4,0.5-0.5
	c0.2-0.1,0.4-0.2,0.7-0.2c0.2-0.1,0.5-0.1,0.7-0.1c0.2,0,0.4-0.1,0.6-0.1c0.2,0,0.4,0,0.5-0.1c0.1,0,0.3-0.1,0.3-0.2
	c0.1-0.1,0.1-0.2,0.1-0.4c0-0.1,0-0.3-0.1-0.4c-0.1-0.1-0.2-0.2-0.3-0.2c-0.1-0.1-0.2-0.1-0.4-0.1c-0.1,0-0.3,0-0.4,0
	c-0.3,0-0.6,0.1-0.8,0.2c-0.2,0.1-0.3,0.3-0.4,0.6H7.1c0-0.3,0.1-0.6,0.2-0.8c0.1-0.2,0.3-0.4,0.5-0.5c0.2-0.1,0.5-0.2,0.7-0.3
	c0.3-0.1,0.6-0.1,0.9-0.1c0.3,0,0.5,0,0.8,0.1c0.3,0.1,0.5,0.1,0.7,0.3c0.2,0.1,0.4,0.3,0.5,0.5c0.1,0.2,0.2,0.4,0.2,0.7V49z
	 M10.4,47.5c-0.2,0.1-0.4,0.2-0.7,0.2c-0.3,0-0.5,0.1-0.8,0.1c-0.1,0-0.2,0-0.4,0.1c-0.1,0-0.2,0.1-0.3,0.2
	c-0.1,0.1-0.2,0.1-0.2,0.3C8.1,48.4,8,48.6,8,48.7c0,0.1,0,0.2,0.1,0.3c0.1,0.1,0.2,0.2,0.3,0.2c0.1,0.1,0.2,0.1,0.3,0.1
	c0.1,0,0.2,0,0.3,0c0.1,0,0.3,0,0.4-0.1s0.3-0.1,0.4-0.2s0.2-0.2,0.3-0.3c0.1-0.1,0.1-0.3,0.1-0.5V47.5z M12.7,44.9H14l1.4,3.9h0
	l1.3-3.9H18l-2,5.6c-0.1,0.2-0.2,0.5-0.3,0.7c-0.1,0.2-0.2,0.4-0.3,0.6c-0.1,0.2-0.3,0.3-0.5,0.4c-0.2,0.1-0.4,0.1-0.8,0.1
	c-0.3,0-0.5,0-0.8-0.1v-1c0.1,0,0.2,0,0.3,0c0.1,0,0.2,0,0.3,0c0.1,0,0.2,0,0.3-0.1c0.1,0,0.2-0.1,0.2-0.1c0.1-0.1,0.1-0.1,0.1-0.2
	c0-0.1,0.1-0.2,0.1-0.3l0.1-0.4L12.7,44.9z M19.1,44.9h1.1v0.7h0c0.1-0.1,0.2-0.2,0.3-0.4c0.1-0.1,0.2-0.2,0.3-0.3
	c0.1-0.1,0.3-0.1,0.4-0.2c0.2,0,0.4-0.1,0.6-0.1c0.3,0,0.6,0.1,0.9,0.2c0.3,0.1,0.5,0.4,0.6,0.7c0.2-0.3,0.4-0.5,0.7-0.6
	c0.3-0.2,0.6-0.2,1-0.2c0.6,0,1,0.1,1.3,0.4c0.3,0.3,0.5,0.7,0.5,1.4v3.6h-1.2v-3.1c0-0.2,0-0.4,0-0.6c0-0.2-0.1-0.3-0.1-0.4
	c-0.1-0.1-0.2-0.2-0.3-0.3c-0.1-0.1-0.3-0.1-0.5-0.1c-0.4,0-0.7,0.1-0.9,0.4c-0.2,0.2-0.3,0.6-0.3,1v3.1h-1.2v-3.4
	c0-0.4-0.1-0.6-0.2-0.8c-0.1-0.2-0.4-0.3-0.7-0.3c-0.1,0-0.3,0-0.4,0.1c-0.1,0.1-0.3,0.1-0.4,0.3c-0.1,0.1-0.2,0.3-0.3,0.4
	c-0.1,0.2-0.1,0.4-0.1,0.6v3.1h-1.2V44.9z M29.4,47.8c0,0.2,0,0.4,0.1,0.6c0.1,0.2,0.1,0.4,0.3,0.5c0.1,0.1,0.3,0.3,0.4,0.3
	c0.2,0.1,0.4,0.1,0.6,0.1c0.3,0,0.6-0.1,0.8-0.2c0.2-0.1,0.4-0.4,0.5-0.7h1.1c-0.1,0.3-0.2,0.5-0.3,0.8c-0.1,0.2-0.3,0.4-0.5,0.6
	c-0.2,0.2-0.4,0.3-0.7,0.3c-0.3,0.1-0.5,0.1-0.8,0.1c-0.4,0-0.8-0.1-1.1-0.2c-0.3-0.1-0.6-0.3-0.8-0.6c-0.2-0.2-0.4-0.5-0.5-0.9
	c-0.1-0.3-0.2-0.7-0.2-1.1c0-0.4,0.1-0.7,0.2-1.1c0.1-0.3,0.3-0.6,0.5-0.9c0.2-0.3,0.5-0.5,0.8-0.6c0.3-0.1,0.7-0.2,1.1-0.2
	c0.4,0,0.8,0.1,1.1,0.3c0.3,0.2,0.6,0.4,0.8,0.7c0.2,0.3,0.4,0.6,0.5,1c0.1,0.4,0.1,0.8,0.1,1.1H29.4z M32.1,47.1
	c0-0.2-0.1-0.4-0.1-0.5c-0.1-0.2-0.2-0.3-0.3-0.4c-0.1-0.1-0.2-0.2-0.4-0.3c-0.2-0.1-0.3-0.1-0.5-0.1c-0.2,0-0.4,0-0.6,0.1
	c-0.2,0.1-0.3,0.2-0.4,0.3s-0.2,0.3-0.3,0.4c-0.1,0.2-0.1,0.4-0.1,0.6H32.1z M34.6,44.9h1.1v0.8l0,0c0.2-0.3,0.4-0.5,0.7-0.7
	c0.3-0.2,0.6-0.2,0.9-0.2c0.6,0,1,0.1,1.4,0.4c0.3,0.3,0.5,0.7,0.5,1.3v3.6h-1.2v-3.3c0-0.4-0.1-0.7-0.3-0.9
	c-0.2-0.2-0.4-0.3-0.8-0.3c-0.2,0-0.4,0-0.5,0.1c-0.2,0.1-0.3,0.2-0.4,0.3c-0.1,0.1-0.2,0.3-0.3,0.4c-0.1,0.2-0.1,0.3-0.1,0.5v3.1
	h-1.2V44.9z M40.4,44.9h0.9v-1.6h1.2v1.6h1v0.9h-1v2.8c0,0.1,0,0.2,0,0.3c0,0.1,0,0.2,0.1,0.2c0,0.1,0.1,0.1,0.2,0.1
	c0.1,0,0.2,0,0.3,0c0.1,0,0.2,0,0.2,0c0.1,0,0.2,0,0.2,0v0.9c-0.1,0-0.3,0-0.4,0c-0.1,0-0.2,0-0.4,0c-0.3,0-0.6,0-0.7-0.1
	c-0.2-0.1-0.3-0.1-0.4-0.3c-0.1-0.1-0.2-0.3-0.2-0.4c0-0.2-0.1-0.4-0.1-0.6v-3.1h-0.9V44.9z M45.7,48.5c0,0.3,0.2,0.6,0.4,0.7
	c0.2,0.1,0.5,0.2,0.8,0.2c0.1,0,0.2,0,0.4,0c0.1,0,0.3,0,0.4-0.1c0.1,0,0.2-0.1,0.3-0.2c0.1-0.1,0.1-0.2,0.1-0.4
	c0-0.1-0.1-0.3-0.2-0.4c-0.1-0.1-0.2-0.2-0.4-0.2C47.4,48,47.2,48,47,48c-0.2,0-0.4-0.1-0.6-0.1c-0.2,0-0.4-0.1-0.6-0.2
	c-0.2-0.1-0.4-0.2-0.5-0.3c-0.2-0.1-0.3-0.3-0.4-0.4c-0.1-0.2-0.1-0.4-0.1-0.7c0-0.3,0.1-0.5,0.2-0.7c0.1-0.2,0.3-0.4,0.5-0.5
	c0.2-0.1,0.5-0.2,0.7-0.2s0.5-0.1,0.7-0.1c0.3,0,0.5,0,0.8,0.1c0.2,0.1,0.5,0.2,0.7,0.3c0.2,0.1,0.4,0.3,0.5,0.5
	c0.1,0.2,0.2,0.5,0.3,0.7h-1.2c-0.1-0.3-0.2-0.5-0.4-0.6c-0.2-0.1-0.4-0.1-0.7-0.1c-0.1,0-0.2,0-0.3,0c-0.1,0-0.2,0-0.3,0.1
	c-0.1,0-0.2,0.1-0.2,0.2c-0.1,0.1-0.1,0.2-0.1,0.3c0,0.1,0,0.3,0.1,0.3c0.1,0.1,0.2,0.2,0.4,0.2c0.2,0.1,0.3,0.1,0.5,0.1
	c0.2,0,0.4,0.1,0.6,0.1c0.2,0,0.4,0.1,0.6,0.2c0.2,0.1,0.4,0.2,0.5,0.3c0.2,0.1,0.3,0.3,0.4,0.4c0.1,0.2,0.1,0.4,0.1,0.7
	c0,0.3-0.1,0.6-0.2,0.8c-0.1,0.2-0.3,0.4-0.6,0.5c-0.2,0.1-0.5,0.2-0.8,0.3s-0.6,0.1-0.8,0.1c-0.3,0-0.6,0-0.9-0.1
	c-0.3-0.1-0.5-0.2-0.7-0.3c-0.2-0.2-0.4-0.3-0.5-0.6c-0.1-0.2-0.2-0.5-0.2-0.8H45.7z M52.4,42.9h1.2v2.7h0c0.1-0.1,0.2-0.2,0.3-0.3
	c0.1-0.1,0.2-0.2,0.4-0.3c0.1-0.1,0.3-0.1,0.4-0.2c0.2,0,0.3-0.1,0.5-0.1c0.4,0,0.8,0.1,1.1,0.2c0.3,0.1,0.6,0.3,0.8,0.6
	c0.2,0.3,0.4,0.6,0.5,0.9c0.1,0.3,0.2,0.7,0.2,1.1c0,0.4,0,0.7-0.1,1c-0.1,0.3-0.2,0.6-0.4,0.9s-0.4,0.5-0.7,0.6
	c-0.3,0.2-0.6,0.2-1,0.2c-0.2,0-0.4,0-0.5,0c-0.2,0-0.4-0.1-0.5-0.1c-0.2-0.1-0.3-0.2-0.4-0.3c-0.1-0.1-0.2-0.3-0.3-0.4h0v0.7h-1.1
	V42.9z M56.5,47.5c0-0.2,0-0.5-0.1-0.7c-0.1-0.2-0.2-0.4-0.3-0.6c-0.1-0.2-0.3-0.3-0.5-0.4c-0.2-0.1-0.4-0.2-0.6-0.2
	c-0.5,0-0.9,0.2-1.1,0.5c-0.2,0.3-0.4,0.8-0.4,1.4c0,0.3,0,0.5,0.1,0.7s0.2,0.4,0.3,0.6c0.1,0.2,0.3,0.3,0.5,0.4
	c0.2,0.1,0.4,0.1,0.6,0.1c0.3,0,0.5-0.1,0.7-0.2c0.2-0.1,0.3-0.2,0.5-0.4c0.1-0.2,0.2-0.4,0.3-0.6C56.5,48,56.5,47.8,56.5,47.5z
	 M58.5,44.9h1.3l1.4,3.9h0l1.3-3.9h1.2l-2,5.6c-0.1,0.2-0.2,0.5-0.3,0.7c-0.1,0.2-0.2,0.4-0.3,0.6c-0.1,0.2-0.3,0.3-0.5,0.4
	c-0.2,0.1-0.4,0.1-0.8,0.1c-0.3,0-0.5,0-0.8-0.1v-1c0.1,0,0.2,0,0.3,0c0.1,0,0.2,0,0.3,0c0.1,0,0.2,0,0.3-0.1c0.1,0,0.2-0.1,0.2-0.1
	c0.1-0.1,0.1-0.1,0.1-0.2c0-0.1,0.1-0.2,0.1-0.3l0.1-0.4L58.5,44.9z"/>
</svg>
